<svg xmlns="http://www.w3.org/2000/svg" height="29" viewBox="0 0 703 40" width="496" version="1.1" fill="#005789">
<path id="logo" d="m685.4 29.6c.10 3.1 2.7 4.4 5.5 4.4 2.1.00 4.7-.80 4.7-3.3.00-2.2-3-2.9-8.1-4-4.1-.90-8.3-2.4-8.3-7 .00-6.7 5.8-8.4 11.4-8.4 5.7.00 11 1.9 11.5 8.3h-6.8c-.20-2.8-2.3-3.5-4.9-3.5-1.6.00-4 .30-4 2.4.00 2.6 4 2.9 8.1 3.9 4.2 1 8.3 2.5 8.3 7.3.00 6.9-6 9.1-11.9 9.1-6.1.00-12-2.3-12.3-9.2h6.8zm-20.6-18.4c-7.9.00-13.3 6-13.3 13.8.00 8 5.1 13.7 13.3 13.7 5.9.00 10.2-2.6 12.2-8.8h-6.3c-.50 1.6-2.8 3.4-5.7 3.4-4 .00-6.2-2.1-6.4-6.6h18.9c.50-8-3.8-15.5-12.7-15.5zm-.30 5.4c3.5.00 5 2 5.7 5.6h-11.7c.10-2.1 1.5-5.6 6-5.6zm-21.3 4.5c-.50-2.9-2.3-4.5-5.3-4.5-4.6.00-6.1 4.6-6.1 8.5.00 3.7 1.5 8.2 6 8.2 3.3.00 5.3-2.1 5.7-5.3h6.9c-.90 6.9-5.7 10.7-12.6 10.7-7.9.00-13.2-5.6-13.2-13.4.00-8.1 4.8-14.1 13.3-14.1 6.2.00 11.8 3.2 12.3 9.9h-7zm-45.9-9.1h6.8v3.6h.20c1.8-2.9 4.9-4.3 8-4.3 7.6.00 9.5 4.3 9.5 10.8v16.1h-7.2v-14.9c.00-4.3-1.3-6.4-4.6-6.4-3.9.00-5.6 2.2-5.6 7.5v13.7h-7.2v-26.1zm-15.1-.80c-7.9.00-13.3 6-13.3 13.8.00 8 5.1 13.7 13.3 13.7 5.9.00 10.2-2.6 12.2-8.8h-6.3c-.50 1.6-2.8 3.4-5.7 3.4-4 .00-6.2-2.1-6.4-6.6h18.9c.50-8-3.8-15.5-12.7-15.5zm-.20 5.4c3.5.00 5 2 5.7 5.6h-11.7c.10-2.1 1.5-5.6 6-5.6zm-22.9-4.6h7.2v26.1h-7.2v-26.1zm7.1-4.1h-7.1v-5.9h7.2v5.9zm-16.8 13.2c-.50-2.9-2.3-4.5-5.3-4.5-4.6.00-6.1 4.6-6.1 8.5.00 3.7 1.5 8.2 6 8.2 3.3.00 5.2-2.1 5.7-5.3h6.9c-.90 6.9-5.7 10.7-12.6 10.7-7.9.00-13.2-5.6-13.2-13.4.00-8.1 4.8-14.1 13.3-14.1 6.2.00 11.8 3.2 12.3 9.9h-7zm-42.6 5c.00 4.8 3.7 6.7 8 6.7 2.8.00 7-.80 7-4.5.00-3.9-5.4-4.5-10.7-6-5.4-1.4-10.8-3.5-10.8-10.2.00-7.4 7-10.9 13.5-10.9 7.5.00 14.4 3.3 14.4 11.6h-7.7c-.30-4.3-3.3-5.5-7.1-5.5-2.5.00-5.5 1.1-5.5 4.1.00 2.8 1.7 3.1 10.8 5.5 2.6.70 10.7 2.3 10.7 10.5.00 6.6-5.2 11.6-15 11.6-8 .00-15.4-3.9-15.3-12.8h7.7zm-29.5-24.1h7.2v36h-7.2v-36zm-15.4 9.3c-5.9.00-11.9 2-12.3 8.7v.10h7.3c.20-2.8 2-3.9 4.7-3.9 2.5.00 4.6.40 4.6 3.5.00 2.9-4.1 2.7-8.5 3.4-4.5.60-8.9 2-8.9 7.9.00 5.3 4 7.8 8.9 7.8 3.2.00 6.5-.80 8.8-3.2.00.80.20 1.7.50 2.5h7.3c-.60-1.1-.90-3.4-.90-5.8v-13.6c.00-6.2-6.3-7.4-11.5-7.4zm4.3 14v2.6c.00 1.6-.20 6-5.8 6-2.3.00-4.4-.60-4.4-3.3.00-2.6 2-3.3 4.2-3.8 2.3-.40 4.8-.40 6-1.5zm-25.7-4.2c-.50-2.9-2.3-4.5-5.3-4.5-4.6.00-6.1 4.6-6.1 8.5.00 3.7 1.5 8.2 6 8.2 3.3.00 5.3-2.1 5.7-5.3h6.9c-.90 6.9-5.7 10.7-12.6 10.7-7.9.00-13.2-5.6-13.2-13.4.00-8.1 4.8-14.1 13.3-14.1 6.2.00 11.8 3.2 12.3 9.9h-7zm-28.8-9.1h7.2v26.1h-7.2v-26.1zm7.2-4.1h-7.2v-5.9h7.2v5.9zm-51.2 4.1h6.8v3.5h.10c1.9-2.7 4.6-4.2 8-4.2 3.3.00 6.2 1.2 7.6 4.3 1.5-2.3 4.2-4.3 7.9-4.3 5.6.00 9.5 2.6 9.5 9.3v17.5h-7.2v-14.8c.00-3.5-.30-6.4-4.4-6.4-4 .00-4.8 3.3-4.8 6.6v14.5h-7.1v-14.6c.00-3 .20-6.5-4.3-6.5-1.4.00-4.8.90-4.8 6v15.1h-7.2v-26zm-15.3-.80c-7.9.00-13.3 6-13.3 13.8.00 8 5.1 13.7 13.3 13.7 5.9.00 10.2-2.6 12.2-8.8h-6.3c-.50 1.6-2.8 3.4-5.7 3.4-4 .00-6.2-2.1-6.4-6.6h18.9c.50-8-3.8-15.5-12.7-15.5zm-.20 5.4c3.5.00 5 2 5.7 5.6h-11.7c.10-2.1 1.5-5.6 6-5.6zm-4e1-14.6h7.2v13.6h.20c1.8-2.9 4.9-4.3 7.6-4.3 7.6.00 9.5 4.3 9.5 10.8v16.1h-7.2v-14.9c.00-4.3-1.3-6.4-4.6-6.4-3.9.00-5.6 2.2-5.6 7.5v13.7h-7.2v-36.1zm-9.5 19.1c-.50-2.9-2.3-4.5-5.3-4.5-4.6.00-6.1 4.6-6.1 8.5.00 3.7 1.5 8.2 6 8.2 3.3.00 5.2-2.1 5.7-5.3h6.9c-.90 6.9-5.7 10.7-12.6 10.7-7.9.00-13.2-5.6-13.2-13.4.00-8.1 4.8-14.1 13.3-14.1 6.2.00 11.8 3.2 12.3 9.9h-7zm-34.2-9.8c-8.1.00-13.4 5.4-13.5 13.8.00 8.2 5.3 13.7 13.5 13.7s13.5-5.4 13.5-13.7-5.3-13.8-13.5-13.8zm.00 5.4c4.9.00 6.4 4.2 6.4 8.4.00 4.1-1.5 8.3-6.4 8.3-4.8.00-6.3-4.2-6.3-8.3.00-4.2 1.5-8.4 6.3-8.4zm-23.7-4.7h7.2v26.1h-7.2v-26.1zm7.2-4.1h-7.2v-5.9h7.2v5.9zm-40.4-5.9v35.9h17.5c6.5.00 12.7-3.1 12.7-10.4.00-4.5-2.2-7.8-6.6-9.1 3.1-1.5 4.9-4 4.9-7.5.00-6.7-4.6-8.9-11.5-8.9h-17zm7.8 6.2h7.4c2.9.00 5.5.70 5.5 4.1.00 3-2 4.3-4.8 4.3h-8-.10v-8.4zm.20 13.9h8.6c3.4.00 5.7 1.4 5.7 5.1s-2.8 4.7-5.9 4.7h-8.4v-9.8zm-45.5-10.1h6.8v3.6h.20c1.8-2.9 4.9-4.3 8-4.3 7.6.00 9.5 4.3 9.5 10.8v16.1h-7.2v-14.9c.00-4.3-1.3-6.4-4.6-6.4-3.9.00-5.6 2.2-5.6 7.5v13.7h-7.1v-26.1zm-11.1.00h7.2v26.1h-7.2v-26.1zm7.2-4.1h-7.2v-5.9h7.2v5.9zm-35.8 21.7c.10 3.1 2.7 4.4 5.5 4.4 2.1.00 4.7-.80 4.7-3.3.00-2.2-3-2.9-8.1-4-4.1-.90-8.3-2.4-8.3-7 .00-6.7 5.8-8.4 11.4-8.4 5.7.00 11 1.9 11.5 8.3h-6.8c-.20-2.8-2.3-3.5-4.9-3.5-1.6.00-4 .30-4 2.4.00 2.6 4 2.9 8.1 3.9 4.2 1 8.3 2.5 8.3 7.3.00 6.9-6 9.1-11.9 9.1-6.1.00-12-2.3-12.3-9.2h6.8zm-16.2-27.6v13.1h-.10c-1.6-2.6-4.6-3.9-7.7-3.9-7.7.00-11.6 6.5-11.6 13.5.00 7.2 3.8 14 11.7 14 3.3.00 6.2-1.2 7.9-4h.10.10v3.3h6.8v-36h-7.2zm-6 14.7c4.6.00 6.1 4 6.2 8.3.00 4.3-1.5 8.4-6.2 8.4-4.4.00-6.3-4.3-6.3-8.4.00-4.3 1.6-8.3 6.3-8.3zm-40.5-4.7h6.8v3.6h.20c1.8-2.9 4.9-4.3 8-4.3 7.6.00 9.5 4.3 9.5 10.8v16.1h-7.2v-14.9c.00-4.3-1.3-6.4-4.6-6.4-3.9.00-5.6 2.2-5.6 7.5v13.7h-7.2v-26.1zm-15.1-.80c-7.9.00-13.3 6-13.3 13.8.00 8 5.1 13.7 13.3 13.7 5.9.00 10.2-2.6 12.2-8.8h-6.3c-.50 1.6-2.8 3.4-5.7 3.4-4 .00-6.2-2.1-6.4-6.6h18.9c.50-8-3.8-15.5-12.7-15.5zm-.30 5.4c3.5.00 5 2 5.7 5.6h-11.7c.10-2.1 1.5-5.6 6-5.6zm-28.8-4.6h6.8v4.8h.10c1.3-3.3 4.8-5.6 8.3-5.6.50.00 1.1.10 1.6.30v6.7c-.70-.20-1.7-.30-2.6-.30-5.2.00-7.1 3.8-7.1 8.4v11.8h-7.2v-26.1zm-15.7-3.3h-10.8v-6.7h29.5v6.7h-10.8v29.4h-7.9v-29.4z"/>
</svg>
