<svg height="32" viewBox="0 0 157 32" width="157" xmlns="http://www.w3.org/2000/svg"><path d="m3.072 3.52.064 2.048h.064c.32-1.088 1.408-2.048 2.88-2.048 1.92 0 2.496.96 2.496 2.816v3.648c0 1.088.064 2.24.32 3.136h-3.136c.256-.832.32-1.792.32-3.008v-3.52c0-.896-.32-1.216-1.28-1.216-.704 0-1.216.192-1.664.512v4.16c0 1.216.064 2.176.32 3.008h-3.072c.32-.896.32-2.048.32-3.136v-3.328c0-.896-.32-1.728-.704-2.112zm10.24 0c2.432 0 3.328.96 3.328 2.944v4.16c0 .768.32.96.896.96.128 0 .384-.064.512-.128-.064.32-.064.384-.192.64-.32.768-.768 1.28-1.792 1.28-1.216 0-1.792-.832-1.856-1.728h-.064c-.384 1.216-1.216 1.728-2.368 1.728-1.536 0-2.496-.896-2.496-2.304 0-1.472 1.344-2.176 2.752-2.688 1.344-.512 2.048-.896 2.048-1.856v-.256c0-1.088-.32-1.6-1.344-1.6-.64 0-.896.32-.96.896-.192.896-.512 1.216-1.152 1.216-.512 0-1.024-.384-1.024-1.024.064-1.344 1.856-2.24 3.712-2.24zm.832 7.808v-3.392c-.192.32-.384.448-1.088.768-.896.448-1.216.896-1.216 1.92 0 .832.448 1.344 1.216 1.344.704-.064.96-.256 1.088-.64zm9.344.768c-.32.768-1.088 1.216-2.24 1.216-1.92 0-2.688-.96-2.688-2.752v-5.504h-.896v-.128l3.328-3.456h.064v2.24h2.368l-.256 1.344h-2.112v5.12c0 .96.384 1.344 1.344 1.344.64 0 1.024-.128 1.344-.256-.128.32-.128.576-.256.832zm3.2-8.448v6.464c0 .96.384 1.536 1.344 1.536.768 0 1.408-.256 1.728-.704v-4.416c0-.96-.128-1.792-.384-2.624l2.88-.32v6.656c0 1.472.192 2.112.384 2.816h-2.816v-1.856h-.064c-.384 1.216-1.216 2.048-2.816 2.048-2.048 0-2.816-1.216-2.816-3.072v-3.648c0-.96-.064-1.792-.384-2.624zm9.536 2.304c.384-1.728 1.216-2.368 2.24-2.368.96 0 1.472.512 1.472 1.344 0 .768-.384 1.344-1.152 1.344-.384 0-.704-.192-.896-.384s-.384-.384-.576-.384c-.512 0-1.088.832-1.088 2.24v2.304c0 1.152.064 2.304.32 3.2h-3.136c.32-.896.32-2.048.32-3.136v-3.456c0-.896-.32-1.728-.704-2.176l3.072-.896h.064zm7.872 7.36c-2.368 0-4.352-1.6-4.352-4.672s1.92-5.184 4.48-5.184c2.432 0 3.52 1.536 3.52 4.48h-5.504v.32c0 2.368 1.216 3.264 2.88 3.264 1.472 0 2.176-.64 2.624-1.024l.064.192c-.512 1.344-1.664 2.624-3.712 2.624zm-1.856-6.016 3.136-.32c-.064-1.472-.256-2.368-1.344-2.368-1.024.064-1.664.896-1.792 2.688zm11.392-1.344c.384-1.728 1.216-2.368 2.24-2.368.96 0 1.472.512 1.472 1.344 0 .768-.384 1.344-1.152 1.344-.384 0-.704-.192-.896-.384s-.384-.384-.576-.384c-.512 0-1.088.832-1.088 2.24v2.304c0 1.152.064 2.304.32 3.2h-3.136c.32-.896.32-2.048.32-3.136v-3.456c0-.896-.32-1.728-.704-2.176l3.072-.896h.064zm7.872 7.36c-2.368 0-4.352-1.6-4.352-4.672s1.92-5.184 4.48-5.184c2.432 0 3.52 1.536 3.52 4.48h-5.504v.32c0 2.368 1.216 3.264 2.88 3.264 1.472 0 2.176-.64 2.624-1.024l.064.192c-.512 1.344-1.664 2.624-3.712 2.624zm-1.856-6.016 3.136-.32c-.064-1.472-.256-2.368-1.344-2.368-1.088.064-1.664.896-1.792 2.688zm9.152-.96 1.216 3.136 1.216-3.136c.384-1.024.512-1.92.256-2.624h2.368c-.448.64-.96 1.728-1.408 2.816l-2.624 6.72h-.832l-2.752-6.656c-.512-1.216-.832-2.048-1.344-2.816h3.456c-.064.704.064 1.408.448 2.56zm8.064 3.648c0 1.088.064 2.24.32 3.136h-3.2c.32-.896.32-2.048.32-3.136v-3.392c0-.896-.32-1.728-.704-2.176l3.264-.896h.064l-.128 2.432zm-2.88-8.512c0-.832.64-1.472 1.536-1.472s1.536.64 1.536 1.472-.64 1.472-1.536 1.472-1.536-.64-1.536-1.472zm8.32 11.84c-2.368 0-4.352-1.6-4.352-4.672s1.92-5.184 4.48-5.184c2.432 0 3.52 1.536 3.52 4.48h-5.504v.32c0 2.368 1.216 3.264 2.88 3.264 1.472 0 2.176-.64 2.624-1.024l.064.192c-.512 1.344-1.6 2.624-3.712 2.624zm-1.856-6.016 3.136-.32c-.064-1.472-.256-2.368-1.344-2.368-1.024.064-1.664.896-1.792 2.688zm9.024-1.024.96 3.072h.064l1.92-5.632h.96l1.92 5.632h.064l.896-2.88c.384-1.088.384-2.048.192-2.752h2.176c-.32.768-.768 1.792-1.088 2.944l-2.176 6.528h-.96l-2.048-5.888h-.064l-2.112 5.888h-.96l-2.176-6.464c-.384-1.28-.768-2.176-1.088-2.944h3.2c-.064.64 0 1.408.32 2.496zm14.912-2.304.064 1.984h-.064c-.704-.768-1.408-1.344-2.496-1.344-.768 0-1.216.32-1.216.96s.32.96 1.856 1.6c1.6.64 2.624 1.408 2.624 2.944 0 1.6-.896 3.2-3.456 3.2-1.088 0-2.176-.192-2.944-.64l-.128-2.368h.064c.768.96 1.792 1.92 2.944 1.92s1.408-.384 1.408-1.152c0-.832-.384-1.088-1.92-1.664-1.536-.64-2.56-1.344-2.56-2.944 0-1.792 1.408-2.88 3.264-2.88 1.216-.064 1.92.128 2.56.384zm-103.04 15.68h.896v1.728c.384-.96 1.472-1.856 2.944-1.856 1.344 0 2.368.576 2.752 2.048.576-1.28 1.856-2.048 3.2-2.048 1.728 0 3.072.96 3.072 3.52v5.632h-.896v-5.76c0-1.92-.832-2.688-2.24-2.688s-2.816.96-2.816 2.88v5.504h-.896v-5.76c0-1.92-.832-2.688-2.24-2.688s-2.816.96-2.816 2.88v5.504h-.96zm14.336 4.608v-.128c0-2.752 1.92-4.608 4.352-4.608s4.352 1.856 4.352 4.608v.128c0 2.752-1.92 4.608-4.352 4.608-2.496 0-4.352-1.92-4.352-4.608zm7.744 0v-.128c0-2.368-1.472-3.84-3.456-3.84s-3.456 1.472-3.456 3.84v.128c0 2.304 1.472 3.776 3.456 3.776s3.456-1.472 3.456-3.776zm2.496-8.96h.96v13.44h-.96zm2.432 8.96v-.128c0-2.752 1.728-4.608 4.16-4.608 2.176 0 3.968 1.408 3.968 4.416v.32h-7.168c.064 2.432 1.216 3.776 3.328 3.776 1.536 0 2.496-.64 2.88-1.92h.896c-.384 1.728-1.792 2.688-3.776 2.688-2.56.064-4.288-1.792-4.288-4.544zm7.168-.704c-.064-2.176-1.216-3.2-3.008-3.2-1.728 0-3.008 1.216-3.2 3.2zm1.792.704v-.128c0-2.752 1.92-4.608 4.352-4.608 1.856 0 3.52.96 3.776 3.008h-.896c-.192-1.536-1.472-2.24-2.88-2.24-1.92 0-3.392 1.472-3.392 3.84v.128c0 2.368 1.472 3.776 3.392 3.776 1.536 0 2.816-.896 3.008-2.496h.896c-.256 1.92-1.792 3.264-3.904 3.264-2.496.064-4.352-1.728-4.352-4.544zm9.536 1.152v-5.76h.896v5.696c0 1.92.896 2.752 2.496 2.752 1.472 0 2.944-.96 2.944-2.88v-5.504h.896v9.088h-.896v-1.728c-.384.96-1.6 1.856-3.2 1.856-1.856-.064-3.136-1.088-3.136-3.52zm9.408-10.112h.96v13.44h-.96zm2.496 10.944c0-2.112 2.048-2.752 4.224-2.752h1.92v-.832c0-1.664-.704-2.432-2.24-2.432-1.344 0-2.368.576-2.56 1.92h-.896c.192-1.92 1.792-2.752 3.456-2.752 1.92 0 3.2.896 3.2 3.2v6.016h-.896v-1.408c-.64.96-1.6 1.6-3.136 1.6-1.792.064-3.072-.832-3.072-2.56zm6.144-.448v-1.536h-1.856c-1.92 0-3.392.384-3.392 2.048 0 1.152.768 1.856 2.24 1.856 1.664-.064 3.008-1.024 3.008-2.368zm3.008-6.144h.896v1.92c.512-1.088 1.408-1.984 3.072-2.048v.896c-1.728.064-3.072.896-3.072 3.328v5.056h-.896zm8.256 4.608v-.128c0-2.752 1.92-4.608 4.352-4.608 1.856 0 3.52.96 3.776 3.008h-.896c-.192-1.536-1.472-2.24-2.88-2.24-1.92 0-3.392 1.472-3.392 3.84v.128c0 2.368 1.472 3.776 3.392 3.776 1.536 0 2.816-.896 3.008-2.496h.896c-.256 1.92-1.792 3.264-3.904 3.264-2.496.064-4.352-1.728-4.352-4.544zm8.96 0v-.128c0-2.752 1.728-4.608 4.16-4.608 2.176 0 3.968 1.408 3.968 4.416v.32h-7.168c.064 2.432 1.216 3.776 3.328 3.776 1.536 0 2.496-.64 2.88-1.92h.896c-.384 1.728-1.792 2.688-3.776 2.688-2.624.064-4.288-1.792-4.288-4.544zm7.168-.704c-.064-2.176-1.216-3.2-3.008-3.2-1.728 0-3.008 1.216-3.2 3.2zm2.432-8.256h.96v13.44h-.96zm3.136 0h.96v13.44h-.96zm7.616 11.392v2.048h-.896v-13.44h.896v6.464c.512-1.216 1.856-2.24 3.456-2.24 2.24 0 4.096 1.728 4.096 4.608v.128c0 2.88-1.728 4.608-4.096 4.608-1.728 0-2.944-1.088-3.456-2.176zm6.592-2.432v-.128c0-2.496-1.472-3.84-3.2-3.84-1.792 0-3.392 1.344-3.392 3.84v.128c0 2.496 1.536 3.776 3.392 3.776 1.92.064 3.2-1.344 3.2-3.776zm2.24-7.232c0-.32.32-.64.64-.64.384 0 .64.32.64.64 0 .384-.32.64-.64.64-.32.064-.64-.256-.64-.64zm.256 2.624h.896v9.088h-.896zm2.432 4.608v-.128c0-2.752 1.92-4.608 4.352-4.608s4.352 1.856 4.352 4.608v.128c0 2.752-1.92 4.608-4.352 4.608-2.496 0-4.352-1.92-4.352-4.608zm7.808 0v-.128c0-2.368-1.472-3.84-3.456-3.84-1.92 0-3.456 1.472-3.456 3.84v.128c0 2.304 1.472 3.776 3.456 3.776 1.92.064 3.456-1.472 3.456-3.776zm2.432-8.96h.96v13.44h-.96zm2.432 8.96v-.128c0-2.752 1.92-4.608 4.352-4.608s4.352 1.856 4.352 4.608v.128c0 2.752-1.92 4.608-4.352 4.608s-4.352-1.92-4.352-4.608zm7.808 0v-.128c0-2.368-1.472-3.84-3.456-3.84-1.92 0-3.456 1.472-3.456 3.84v.128c0 2.304 1.472 3.776 3.456 3.776 1.984.064 3.456-1.472 3.456-3.776zm1.984 4.992h.96c.256 1.152 1.216 1.92 3.072 1.92 1.92 0 3.328-.896 3.328-3.136v-1.856c-.512 1.088-1.728 2.176-3.456 2.176-2.304 0-4.096-1.664-4.096-4.352v-.064c0-2.624 1.792-4.48 4.224-4.48 1.792 0 2.816.96 3.328 2.112v-1.92h.896v8.448c0 2.688-1.792 3.904-4.224 3.904-2.624 0-3.84-1.344-4.032-2.752zm7.36-5.248v-.128c0-2.24-1.344-3.584-3.264-3.584s-3.328 1.408-3.328 3.648v.128c0 2.24 1.408 3.584 3.2 3.584 1.856 0 3.392-1.344 3.392-3.648zm5.632 3.968-3.584-8.32h.96l3.136 7.232 2.88-7.232h.96l-5.056 12.224h-.96z"/></svg>