<svg xmlns="http://www.w3.org/2000/svg" height="56" viewBox="0 0 295 56" width="295" version="1.1" fill="#005789">
<path id="logo" d="m35.1 6.1h-10.3l-6.1 28.3h-.1l-6.2-28.3h-10.4v35.9h6.6v-3e1h0.1l6.2 3e1h7l6.4-3e1h0.1v3e1h6.6v-35.9zm28.7 22.6c0-9.6-6.3-14-13.3-14s-13.3 4.4-13.3 14 6.3 14 13.3 14c6.9 0 13.3-4.4 13.3-14m-7.1 0c0 3.4-1 8.1-6.3 8.1s-6.3-4.7-6.3-8.1 1-8.1 6.3-8.1 6.3 4.7 6.3 8.1m16.2-22.6h-7v35.9h7v-35.9zm19.3 28.1c-.5 1.9-2.5 2.9-4.5 2.9-5.6 0-6-4.5-6.2-6.5h18.2v-1.2c0-12.2-7.2-14.7-12.5-14.7-11.6 0-12.8 10.2-12.8 13.4 0 11 5.8 14.6 13.2 14.6 4.6 0 9.9-2.1 11.7-8.5h-7.1zm-10.5-8.2c0.4-3.5 2.1-5.6 5.4-5.6 2.2 0 5 1.3 5.4 5.6h-10.8zm37 6.3c0 1.2-1.2 4.7-4.8 4.7-5.3 0-5.4-5.8-5.4-8.7 0-3.3 1.2-7.7 5.5-7.7 3.2-.2 4.4 2.5 4.6 4.3h7.1c-.6-8.3-7.5-10.2-11.8-10.2-9 0-12.8 6.2-12.8 14.8 0 5.6 2.3 13.2 12.3 13.2 9.8 0 11.9-7.7 12.2-10.4h-6.9zm32.2-17h-6.8v15.3c0 4.8-3 6.1-5.2 6.1-2.1 0-4.4-.8-4.4-4.9v-16.5h-6.9v17.5c0 6.8 3.7 9.8 8.8 9.8 3.6 0 6.3-1.6 7.9-4.5h0.1v3.8h6.5v-26.6zm10.7-9.2h-7v35.9h7v-35.9zm25.3 16.2c0-6.5-6.8-7.7-10.6-7.7-5.4 0-11.1 1.2-11.9 9.3h6.8c0.2-1.5 .8-3.7 4.3-3.7 1.8 0 4.6 .2 4.6 3.1 0 1.5-1.3 2-2.4 2.1l-6.3 1c-4.4 .7-7.8 3.3-7.8 8.5 0 5.5 4.1 7.8 8.1 7.8 4.8 0 7-2.2 8.6-3.8 .1 1.5 .2 1.9 .6 3.1h7.6v-1c-.8-.3-1.6-1-1.6-4.2v-14.5zm-6.9 10.1c0 3.2-3.2 5.2-6.2 5.2-1.3 0-3.2-.8-3.2-3.2 0-2.9 2.2-3.5 4.8-4 2.9-.4 4.1-.9 4.8-1.4v3.4zm10.1 9.5h7v-13.8c0-2.9 1-6.3 6.5-6.3 .6 0 1.4 0 2 .1v-7.1c-.5-.1-.9-.1-1.4-.1-4.2 0-5.9 2.6-7.3 5.3h-.1v-4.6h-6.7v26.5zm59.8-24.1c-.4-5.3-4.8-12.7-15.5-12.7-9.2 0-16.5 6.4-16.5 19 0 12.4 6.9 18.8 16.4 18.8 9 0 14.1-5.5 15.6-13.2h-7.5c-.9 4.4-3.8 6.8-8 6.8-6.3 0-8.9-5.8-8.9-12.2 0-10.2 5.3-12.6 8.9-12.6 6.2 0 7.3 4.1 8 6.2h7.5zm18.8 16.4c-.5 1.9-2.5 2.9-4.5 2.9-5.6 0-6-4.5-6.2-6.5h18.2v-1.2c0-12.2-7.2-14.7-12.5-14.7-11.6 0-12.8 10.2-12.8 13.4 0 11 5.8 14.6 13.2 14.6 4.5 0 9.9-2.1 11.7-8.5h-7.1zm-10.5-8.2c0.4-3.5 2.2-5.6 5.4-5.6 2.2 0 5 1.3 5.4 5.6h-10.8zm26.4-19.9h-7v35.9h7v-35.9zm8.6 0h-7v35.9h7v-35.9z"/>
</svg>
