<svg height="32" viewBox="0 0 142 32" width="142" xmlns="http://www.w3.org/2000/svg"><g><path d="m26.304 21.824c.064-1.792-.384-2.752-2.304-2.752-1.472 0-2.304.896-2.752 2.048-.128-1.28-.64-2.048-2.304-2.048-1.472 0-2.368.896-2.752 2.048h-.064v-1.984l-3.008.832c.384.384.704 1.216.704 2.112v3.264c0 1.088-.064 2.176-.32 3.008h3.072c-.256-.768-.256-1.792-.256-2.944v-4.032c.448-.384.768-.512 1.472-.512.896 0 1.152.384 1.152 1.216v3.392c0 1.152 0 2.112-.256 2.944h3.072c-.256-.832-.32-1.92-.32-3.008v-3.968c.384-.384.768-.512 1.472-.512.896 0 1.152.384 1.152 1.216v3.392c0 1.152 0 2.112-.256 2.944h3.072c-.256-.832-.32-1.92-.32-3.008v-3.648z"/><path d="m48.576 23.36c0-2.816-1.088-4.352-3.456-4.352-2.496 0-4.352 1.984-4.352 5.056 0 2.944 1.92 4.544 4.288 4.544 2.048 0 3.136-1.28 3.52-2.624l-.064-.128c-.384.384-1.088 1.024-2.496 1.024-1.6 0-2.752-.896-2.752-3.2v-.256h5.312zm-3.584-3.136c1.024 0 1.216.832 1.28 2.304l-3.072.256c.128-1.728.768-2.56 1.792-2.56z"/><path d="m39.744 17.856c0-.448 0-1.792.064-2.624l-3.2.832c.384.384.704 1.216.704 2.112v7.232c0 1.088-.064 2.176-.32 3.008h3.136c-.256-.832-.32-1.92-.32-3.008z"/><path d="m116.736 10.176c0 1.088-.064 2.176-.32 3.008h3.136c-.256-.832-.32-1.92-.32-3.008v-7.552c0-.448 0-1.792.064-2.624h-.064l-3.2.832c.384.384.704 1.216.704 2.112z"/><path d="m36.992 6.016c.192.192.448.384.896.384.704 0 1.152-.512 1.152-1.28s-.448-1.28-1.408-1.28c-1.024 0-1.792.64-2.176 2.368v-2.304l-3.008.832c.384.384.704 1.216.704 2.112v3.264c0 1.088-.064 2.176-.32 3.008h3.072c-.192-.832-.32-1.92-.32-3.072v-2.24c0-1.408.512-2.176 1.024-2.176 0 0 .192.192.384.384z"/><path d="m31.68 19.072c-2.304 0-4.416 1.856-4.416 4.8 0 3.008 2.24 4.736 4.544 4.736s4.416-1.856 4.416-4.8-2.24-4.736-4.544-4.736zm.128 8.448c-1.152 0-1.856-.704-1.856-3.712 0-2.816.64-3.584 1.728-3.584 1.152 0 1.856.704 1.856 3.712 0 2.752-.64 3.584-1.728 3.584z"/><path d="m52.416 12.288c-1.088 0-2.176-.896-2.88-1.856h-.064l.064 2.304c.768.384 1.792.64 2.88.64 2.56 0 3.392-1.536 3.392-3.072 0-1.472-.96-2.24-2.496-2.88-1.472-.64-1.792-.896-1.792-1.536s.448-.896 1.216-.896c1.088 0 1.728.512 2.432 1.28h.064l-.064-1.92c-.576-.256-1.216-.448-2.432-.448-1.792 0-3.2 1.024-3.2 2.816 0 1.536.96 2.24 2.496 2.88 1.408.576 1.856.832 1.856 1.6-.128.704-.384 1.088-1.472 1.088z"/><path d="m18.112 10.752c0 1.728.704 2.688 2.624 2.688 1.088 0 1.856-.448 2.176-1.216.128-.256.128-.448.192-.768-.256.128-.64.256-1.28.256-.832 0-1.28-.384-1.28-1.344v-4.992h2.112l.192-1.28h-2.304v-2.176h-.064l-3.264 3.392v.064h.896z"/><path d="m23.616 10.432c0 1.792.704 3.008 2.688 3.008 1.536 0 2.304-.832 2.688-1.984v1.792h2.752c-.192-.64-.384-1.28-.384-2.752v-6.464l-2.816.256c.256.768.384 1.6.384 2.496v4.288c-.256.448-.832.704-1.6.704-.896 0-1.28-.512-1.28-1.472v-6.272l-2.816.256c.32.768.384 1.6.384 2.496z"/><path d="m43.008 13.44c2.048 0 3.136-1.28 3.52-2.624l-.064-.128c-.384.384-1.088 1.024-2.496 1.024-1.6 0-2.752-.896-2.752-3.2v-.256h5.376c0-2.816-1.088-4.352-3.456-4.352-2.496 0-4.352 1.984-4.352 5.056 0 2.88 1.92 4.48 4.224 4.48zm0-8.448c1.024 0 1.216.832 1.28 2.304l-3.072.256c.128-1.728.768-2.56 1.792-2.56z"/><path d="m10.368 21.888h-1.536c-.064 1.216-.128 2.24-.384 3.072-.96-1.344-1.92-2.688-2.688-3.712 1.6-.64 2.752-1.536 2.752-2.944 0-1.344-.832-2.304-2.816-2.304-2.048 0-3.392 1.472-3.392 3.2 0 .768.192 1.728.832 2.624-1.408.64-2.88 1.6-2.88 3.392 0 1.856 1.024 3.392 3.648 3.392 1.536 0 2.304-.64 3.008-1.408.32.384.64.832.96 1.216h3.264c-1.216-1.408-1.792-2.176-2.368-2.944.64-.768 1.088-1.664 1.6-3.584zm-4.608-4.864c.704 0 1.088.384 1.088 1.408s-.128 1.792-1.344 2.368c-.448-.704-.832-1.536-.832-2.304-.128-.896.256-1.472 1.088-1.472zm-.96 10.24c-1.472 0-2.112-1.344-2.112-2.624 0-1.152.256-1.856.768-2.368.832 1.28 1.984 2.944 3.136 4.416-.448.32-1.024.576-1.792.576z"/><path d="m13.888 11.712c.064.832.64 1.664 1.792 1.664.96 0 1.472-.448 1.728-1.216.064-.128.064-.32.128-.576-.064.064-.384.128-.448.128-.576 0-.832-.192-.832-.96v-3.968c0-1.92-.896-2.88-3.264-2.88-1.792 0-3.584.896-3.584 2.176 0 .64.448.96.96.96.576 0 .96-.32 1.152-1.216.128-.576.32-.832.96-.832.96 0 1.28.512 1.28 1.536v.192c0 .896-.704 1.28-1.984 1.792-1.344.512-2.688 1.152-2.688 2.624 0 1.344.96 2.24 2.432 2.24 1.216.064 1.984-.448 2.368-1.664zm-2.368-.96c0-.96.32-1.408 1.152-1.856.64-.32.896-.448 1.088-.768v3.328c-.192.32-.384.576-1.088.576s-1.152-.512-1.152-1.28z"/><path d="m56.96 10.688c0 1.728.704 2.688 2.624 2.688 1.088 0 1.856-.448 2.176-1.216.128-.256.128-.448.192-.768-.256.128-.64.256-1.28.256-.832 0-1.28-.384-1.28-1.344v-4.928h2.112l.192-1.28h-2.304v-2.176l-3.264 3.328v.064h.832z"/><path d="m.704 10.176c0 1.088-.064 2.176-.32 3.008h3.072c-.256-.768-.256-1.792-.256-2.944v-4.032c.384-.32.896-.512 1.6-.512.896 0 1.216.384 1.216 1.216v3.392c0 1.152 0 2.112-.256 2.944h3.072c-.256-.832-.32-1.92-.32-3.008v-3.584c0-1.792-.576-2.752-2.432-2.752-1.6-.064-2.624.896-3.008 1.984v-1.984l-3.072.832c.384.384.704 1.216.704 2.112z"/><path d="m105.664 19.072c-2.304 0-4.416 1.856-4.416 4.8 0 3.008 2.24 4.736 4.544 4.736s4.416-1.856 4.416-4.8c-.064-2.944-2.304-4.736-4.544-4.736zm.128 8.448c-1.152 0-1.856-.704-1.856-3.712 0-2.816.64-3.584 1.728-3.584 1.152 0 1.856.704 1.856 3.712 0 2.752-.64 3.584-1.728 3.584z"/><path d="m101.696 10.176c0 1.088-.064 2.176-.32 3.008h3.072c-.192-.832-.32-1.92-.32-3.072v-2.24c0-1.408.512-2.176 1.024-2.176.192 0 .32.192.512.384s.448.384.832.384c.704 0 1.152-.512 1.152-1.28s-.448-1.28-1.408-1.28c-1.024 0-1.792.64-2.176 2.368v-2.368l-3.008.832c.384.384.704 1.216.704 2.112v3.328z"/><path d="m100.352 17.088c0-.768-.576-1.472-1.472-1.472-.832 0-1.472.64-1.472 1.472 0 .768.576 1.472 1.472 1.472.832 0 1.472-.64 1.472-1.472z"/><path d="m100.16 4.032-2.816.256c.256.768.384 1.6.384 2.496v4.288c-.32.448-.896.704-1.664.704-.896 0-1.28-.512-1.28-1.472v-6.272l-2.816.256c.32.768.384 1.6.384 2.496v3.584c0 1.792.704 3.008 2.688 3.008 1.536 0 2.304-.832 2.688-1.984v1.792h2.752c-.192-.64-.384-1.28-.384-2.752v-6.4z"/><path d="m100.16 21.376.064-2.304-.064-.064-3.2.832c.384.384.704 1.216.704 2.112v3.264c0 1.088-.064 2.176-.32 3.008h3.136c-.256-.832-.32-1.92-.32-3.008z"/><path d="m113.664 17.856c0-.448.064-1.792.064-2.624l-3.2.832c.384.384.704 1.216.704 2.112v7.232c0 1.088-.064 2.176-.32 3.008h3.136c-.256-.832-.32-1.92-.32-3.008v-7.552z"/><path d="m93.376 19.072c-1.344 0-2.56 1.024-2.88 1.92h-.064v-3.328l.064-2.432-3.136.832c.32.448.64 1.088.64 2.24v9.472c.96.448 2.24.832 3.84.832 3.328 0 4.736-2.368 4.736-5.12.064-3.072-1.28-4.416-3.2-4.416zm-1.472 8.448c-.512 0-1.024-.128-1.408-.448v-5.568c.256-.384.96-.704 1.6-.704 1.344 0 1.856.896 1.856 3.136.064 2.176-.512 3.584-2.048 3.584z"/><path d="m139.328 19.264c.192.704.128 1.472-.128 2.24l-1.216 3.776h-.064l-1.216-3.648c-.32-1.024-.512-1.6-.384-2.304h-2.56c-.192-.384-.576-.576-1.216-.576-.512 0-1.344.384-1.792 1.152h-.064c-.64-.512-1.6-.768-2.496-.768-1.92 0-3.712 1.152-3.712 3.264 0 1.216.768 2.112 1.856 2.624v.064c-.896.256-1.6.832-1.6 1.792s.768 1.664 1.664 1.856v.064c-1.28.192-2.304.64-2.304 1.472 0 .96 1.216 1.728 4.16 1.728 3.136 0 5.12-1.216 5.12-3.456 0-1.472-.896-2.112-2.368-2.112-1.088 0-2.752.064-3.84.064-.576 0-.832-.256-.832-.64 0-.32.064-.512.384-.704.448.128 1.024.192 1.536.192 1.92 0 3.712-1.152 3.712-3.264 0-.704-.32-1.408-.832-2.048.128-.064.256-.128.448-.128.32 0 .448.192.64.384.128.192.32.448.768.448.32 0 .512-.128.704-.32.192.384.384.832.576 1.408l2.432 6.336c-.384 1.152-1.024 2.176-1.536 2.176-.32 0-.512-.448-1.088-.448-.512 0-.896.32-.896.896 0 .64.448 1.088 1.344 1.088 1.6 0 2.816-1.344 4.032-4.8l1.92-5.184c.448-1.216.896-1.984 1.28-2.688h-2.432zm-12.672 9.664c.448-.064 2.688-.128 3.648-.128.704 0 1.088.192 1.088.704 0 .768-.96 1.472-3.264 1.472-1.472 0-2.112-.448-2.112-1.216-.064-.384.256-.832.64-.832zm1.472-4.544c-.896 0-1.472-.704-1.472-2.048 0-1.536.512-2.176 1.408-2.176.832 0 1.472.704 1.472 2.048 0 1.536-.512 2.176-1.408 2.176z"/><path d="m119.104 19.072c-2.304 0-4.416 1.856-4.416 4.8 0 3.008 2.24 4.736 4.544 4.736s4.416-1.856 4.416-4.8c.064-2.944-2.176-4.736-4.544-4.736zm.192 8.448c-1.152 0-1.856-.704-1.856-3.712 0-2.816.64-3.584 1.728-3.584 1.152 0 1.856.704 1.856 3.712 0 2.752-.64 3.584-1.728 3.584z"/><path d="m116.096 12.16c.064-.128.064-.32.128-.576-.064.064-.384.128-.448.128-.576 0-.832-.192-.832-.96v-4.032c0-1.92-.896-2.88-3.264-2.88-1.792 0-3.584.896-3.584 2.176 0 .64.448.96.96.96.576 0 .96-.32 1.152-1.216.128-.576.32-.832.96-.832.96 0 1.28.512 1.28 1.536v.192c0 .896-.704 1.28-1.984 1.792-1.344.512-2.688 1.152-2.688 2.624 0 1.344.96 2.24 2.432 2.24 1.216 0 1.92-.512 2.368-1.664.064.832.64 1.664 1.792 1.664.96.128 1.472-.384 1.728-1.152zm-3.648-.704c-.192.32-.384.576-1.088.576s-1.152-.512-1.152-1.28c0-.96.32-1.408 1.152-1.856.64-.32.896-.448 1.088-.768z"/><path d="m54.144 26.816c-1.6 0-2.624-.96-2.624-3.328 0-2.048.704-3.264 1.92-3.264.576 0 .768.128.896.704.128.768.384 1.216 1.024 1.216.704 0 1.088-.448 1.088-1.152 0-.96-.896-1.856-2.944-1.856-2.24 0-4.416 1.792-4.416 4.992 0 2.88 1.664 4.608 4.096 4.608 2.112 0 3.136-1.408 3.392-2.496v-.128c-.512.384-1.408.704-2.432.704z"/><path d="m69.184 17.856c0-.448.064-1.792.064-2.624l-3.2.832c.384.384.704 1.216.704 2.112v7.232c0 1.088-.064 2.176-.32 3.008h3.136c-.256-.832-.32-1.92-.32-3.008v-7.552z"/><path d="m65.152 19.264-2.752.256c.256.768.384 1.6.384 2.496v4.288c-.32.448-.896.704-1.664.704-.896 0-1.28-.512-1.28-1.472v-6.336l-2.88.32c.32.768.384 1.6.384 2.496v3.584c0 1.792.704 3.008 2.688 3.008 1.536 0 2.304-.832 2.688-1.984v1.792h2.752c-.192-.64-.384-1.28-.384-2.752v-6.4z"/><path d="m66.688 6.016c.192.192.448.384.832.384.704 0 1.152-.512 1.152-1.28s-.448-1.28-1.408-1.28c-1.024 0-1.792.64-2.176 2.368v-2.304l-3.008.832c.384.384.704 1.216.704 2.112v3.264c0 1.088-.064 2.176-.32 3.008h3.072c-.192-.832-.32-1.92-.32-3.072v-2.24c0-1.408.512-2.176 1.024-2.176.064 0 .192.192.448.384z"/><path d="m65.152 19.264h.064z"/><path d="m83.136 11.584c-1.6 0-2.624-.96-2.624-3.328 0-2.048.704-3.264 1.92-3.264.576 0 .768.128.896.704.128.768.384 1.216 1.024 1.216.704 0 1.088-.448 1.088-1.152 0-.96-.896-1.856-2.944-1.856-2.24 0-4.416 1.792-4.416 4.992 0 2.88 1.664 4.608 4.096 4.608 2.112 0 3.136-1.408 3.392-2.496l-.064-.128c-.448.384-1.344.704-2.368.704z"/><path d="m83.648 19.072c-1.024 0-1.792.64-2.176 2.368v-2.304h-.064l-3.008.832c.384.384.704 1.216.704 2.112v3.264c0 1.088-.064 2.176-.32 3.008h3.072c-.192-.832-.32-1.92-.32-3.072v-2.24c0-1.408.512-2.176 1.024-2.176.192 0 .32.192.512.384s.448.384.832.384c.704 0 1.152-.512 1.152-1.28.064-.768-.448-1.28-1.408-1.28z"/><path d="m74.688 11.392v1.792h2.752c-.192-.64-.384-1.28-.384-2.752v-6.4l-2.816.256c.256.768.384 1.6.384 2.496v4.288c-.32.448-.896.704-1.664.704-.896 0-1.28-.512-1.28-1.472v-6.272l-2.816.256c.32.768.384 1.6.384 2.496v3.584c0 1.792.704 3.008 2.688 3.008 1.6 0 2.368-.832 2.752-1.984z"/><path d="m91.584 12.224c.128-.256.128-.448.192-.768-.256.128-.64.256-1.28.256-.832 0-1.28-.384-1.28-1.344v-4.992h2.112l.192-1.28h-2.304v-2.176l-3.264 3.328v.064h.896v5.376c0 1.728.704 2.688 2.624 2.688 1.024.064 1.792-.448 2.112-1.152z"/><path d="m77.248 25.984v-4.032c0-1.92-.896-2.88-3.264-2.88-1.792 0-3.584.896-3.584 2.176 0 .64.448.96.96.96.576 0 .96-.32 1.152-1.216.128-.576.32-.832.96-.832.96 0 1.28.512 1.28 1.536v.192c0 .896-.704 1.28-1.984 1.792-1.344.512-2.688 1.152-2.688 2.624 0 1.344.96 2.24 2.432 2.24 1.216 0 1.92-.512 2.368-1.664.064.832.64 1.664 1.792 1.664.96 0 1.472-.448 1.728-1.216.064-.128.064-.32.128-.576-.064.064-.384.128-.448.128-.576.064-.832-.192-.832-.896zm-2.496.704c-.192.32-.384.576-1.088.576s-1.152-.512-1.152-1.28c0-.96.32-1.408 1.152-1.856.64-.32.896-.448 1.088-.768z"/></g></svg>