<svg height="32" viewBox="0 0 313 32" width="313" xmlns="http://www.w3.org/2000/svg"><path d="m5.92 7.44.08 4h.08c.8-2.24 2.8-4 5.68-4 3.76 0 4.88 1.92 4.88 5.44v7.12c0 2.16.16 4.4.64 6.08h-6.08c.48-1.6.56-3.52.56-5.84v-6.72c0-1.68-.64-2.4-2.48-2.4-1.36 0-2.4.4-3.2 1.04v8.08c0 2.32.08 4.24.56 5.84h-5.92c.56-1.68.64-3.92.64-6.08v-6.56c0-1.76-.64-3.36-1.36-4.16zm19.84-.08c4.72 0 6.48 1.84 6.48 5.68v8c0 1.44.56 1.92 1.68 1.92.24 0 .8-.08.96-.24-.08.56-.16.8-.32 1.2-.48 1.52-1.44 2.48-3.44 2.48-2.32 0-3.52-1.6-3.6-3.36h-.08c-.8 2.32-2.32 3.36-4.64 3.36-2.96 0-4.8-1.76-4.8-4.48 0-2.88 2.64-4.16 5.36-5.2 2.56-1.04 4-1.76 4-3.6v-.4c0-2.08-.64-3.12-2.56-3.12-1.2 0-1.68.56-1.92 1.68-.4 1.76-1.04 2.4-2.24 2.4-1.04 0-2-.72-2-2 0-2.56 3.52-4.32 7.12-4.32zm1.6 15.04v-6.56c-.4.56-.8.88-2.16 1.52-1.68.88-2.32 1.76-2.32 3.68 0 1.6.88 2.56 2.32 2.56 1.36 0 1.84-.48 2.16-1.2zm18.08 1.52c-.64 1.44-2.16 2.4-4.4 2.4-3.76 0-5.2-1.92-5.2-5.28v-10.72h-1.76v-.16l6.48-6.72h.08v4.24h4.64l-.48 2.56h-4.08v9.92c0 1.92.8 2.64 2.56 2.64 1.28 0 2-.24 2.56-.48-.16.72-.16 1.04-.4 1.6zm6.16-16.24v12.56c0 1.92.72 2.96 2.56 2.96 1.52 0 2.72-.48 3.36-1.36v-8.56c0-1.84-.24-3.44-.8-5.04l5.6-.56v12.88c0 2.8.32 4.08.72 5.44h-5.44v-3.6h-.08c-.8 2.32-2.32 4-5.44 4-4 0-5.44-2.4-5.44-5.92v-7.12c0-1.84-.16-3.44-.8-5.04zm18.48 4.4c.8-3.36 2.32-4.64 4.4-4.64 1.92 0 2.8.96 2.8 2.56 0 1.44-.8 2.56-2.24 2.56-.8 0-1.36-.4-1.68-.72-.4-.4-.72-.8-1.12-.8-.96 0-2.08 1.6-2.08 4.4v4.48c0 2.24.16 4.48.64 6.16h-6.08c.56-1.68.64-3.92.64-6.08v-6.56c0-1.76-.64-3.36-1.36-4.16l5.92-1.68h.08zm15.12 14.24c-4.64 0-8.4-3.12-8.4-9.04 0-6 3.68-10 8.64-10 4.72 0 6.88 2.96 6.88 8.64h-10.72v.56c0 4.56 2.32 6.32 5.52 6.32 2.88 0 4.24-1.2 5.04-2l.08.32c-.8 2.64-3.04 5.2-7.04 5.2zm-3.6-11.6 6.08-.56c-.08-2.88-.48-4.64-2.56-4.64-2 .08-3.28 1.68-3.52 5.2zm22.08-2.64c.8-3.36 2.32-4.64 4.4-4.64 1.92 0 2.8.96 2.8 2.56 0 1.44-.8 2.56-2.24 2.56-.8 0-1.36-.4-1.68-.72-.4-.4-.72-.8-1.12-.8-.96 0-2.08 1.6-2.08 4.4v4.48c0 2.24.16 4.48.64 6.16h-6.08c.56-1.68.64-3.92.64-6.08v-6.56c0-1.76-.64-3.36-1.36-4.16l5.92-1.68h.08zm15.12 14.24c-4.64 0-8.48-3.12-8.48-9.04 0-6 3.68-10 8.64-10 4.72 0 6.88 2.96 6.88 8.64h-10.72v.56c0 4.56 2.32 6.32 5.52 6.32 2.88 0 4.24-1.2 5.04-2l.08.32c-.72 2.64-2.96 5.2-6.96 5.2zm-3.6-11.6 6.08-.56c-.08-2.88-.48-4.64-2.56-4.64-2.08.08-3.28 1.68-3.52 5.2zm17.84-1.92 2.32 6.08 2.32-6.08c.8-2 1.04-3.76.48-5.12h4.64c-.88 1.28-1.84 3.36-2.72 5.44l-5.2 12.88h-1.6l-5.28-12.88c-.96-2.32-1.6-3.92-2.56-5.44h6.64c-.08 1.52.16 3.04.96 5.12zm15.44 7.04c0 2.16.16 4.4.64 6.08h-6.24c.56-1.68.64-3.92.64-6.08v-6.56c0-1.76-.64-3.36-1.36-4.16l6.32-1.68h.08l-.16 4.56zm-5.44-16.4c0-1.6 1.2-2.88 2.96-2.88s2.96 1.28 2.96 2.88-1.2 2.88-2.96 2.88c-1.84 0-2.96-1.28-2.96-2.88zm16.08 22.88c-4.64 0-8.48-3.12-8.48-9.04 0-6 3.68-10 8.64-10 4.72 0 6.88 2.96 6.88 8.64h-10.72v.56c0 4.56 2.32 6.32 5.52 6.32 2.88 0 4.24-1.2 5.04-2l.08.32c-.8 2.64-2.96 5.2-6.96 5.2zm-3.68-11.6 6.08-.56c-.08-2.88-.48-4.64-2.56-4.64-2 .08-3.2 1.68-3.52 5.2zm17.52-2 1.84 5.92h.08l3.68-10.88h1.92l3.76 10.88h.08l1.76-5.52c.72-2.16.8-4 .4-5.36h4.24c-.64 1.44-1.44 3.44-2.16 5.76l-4.16 12.64h-2l-3.92-11.44h-.08l-4 11.36h-2l-4.16-12.64c-.8-2.48-1.44-4.24-2.16-5.68h6.16c0 1.36.08 2.88.72 4.96zm28.8-4.48.16 3.84h-.08c-1.36-1.44-2.72-2.56-4.8-2.56-1.44 0-2.4.56-2.4 1.84s.64 1.84 3.6 3.12c3.12 1.28 5.04 2.72 5.04 5.68 0 3.12-1.68 6.16-6.72 6.16-2.16 0-4.24-.4-5.76-1.28l-.24-4.64h.16c1.44 1.84 3.52 3.68 5.76 3.68s2.72-.8 2.72-2.24c0-1.6-.8-2.08-3.68-3.28-2.96-1.28-4.96-2.64-4.96-5.68 0-3.52 2.72-5.6 6.32-5.6 2.32.08 3.68.48 4.88.96zm9.12.16h1.76v4.08c1.04-2.32 3.6-4.4 6.72-4.4 4.4 0 7.92 3.36 7.92 8.88v.24c0 5.52-3.36 8.96-7.92 8.96-3.52 0-5.76-2.08-6.72-4.24v10.08h-1.76zm14.48 8.88v-.24c0-4.8-2.88-7.44-6.24-7.44-3.44 0-6.56 2.56-6.56 7.44v.24c0 4.8 2.96 7.36 6.56 7.36 3.76 0 6.24-2.64 6.24-7.36zm4.72-17.28h1.76v11.84c.8-1.92 3.12-3.68 6.24-3.68 3.76 0 6.24 2 6.24 7.04v10.8h-1.76v-10.96c0-3.76-1.76-5.36-4.88-5.36-2.96 0-5.84 1.92-5.84 5.68v10.64h-1.76zm22.72 24.4-6.96-16h1.92l6 14 5.6-14h1.84l-9.76 23.6h-1.84zm9.2-3.76h1.68c.32 2.4 1.76 4 5.04 4 2.96 0 4.48-1.36 4.48-3.44 0-2.24-1.28-2.96-4.64-3.6-4.32-.8-6.08-1.92-6.08-4.88s2.8-4.72 5.76-4.72c3.12 0 5.68 1.28 6.08 4.8h-1.68c-.4-2.24-1.92-3.28-4.4-3.28s-4.08 1.28-4.08 3.12c0 2 1.2 2.72 4.8 3.36 3.76.64 5.92 1.6 5.92 5.04 0 2.96-2.16 5.12-6.16 5.12-4.16 0-6.48-2.16-6.72-5.52zm15.28-17.28c0-.64.56-1.28 1.28-1.28s1.28.56 1.28 1.28-.56 1.28-1.28 1.28c-.64 0-1.28-.56-1.28-1.28zm.48 5.04h1.76v17.52h-1.76zm4.64 8.88v-.24c0-5.36 3.76-8.96 8.4-8.96 3.6 0 6.88 1.92 7.36 5.84h-1.76c-.4-2.96-2.8-4.32-5.6-4.32-3.68 0-6.56 2.8-6.56 7.44v.24c0 4.64 2.88 7.36 6.56 7.36 2.96 0 5.44-1.68 5.84-4.8h1.68c-.48 3.76-3.52 6.32-7.52 6.32-4.72 0-8.4-3.52-8.4-8.88zm17.2 3.36h1.68c.32 2.4 1.76 4 5.04 4 2.96 0 4.48-1.36 4.48-3.44 0-2.24-1.28-2.96-4.64-3.6-4.32-.8-6.08-1.92-6.08-4.88s2.8-4.72 5.76-4.72c3.12 0 5.68 1.28 6.08 4.8h-1.68c-.4-2.24-1.92-3.28-4.4-3.28s-4.08 1.28-4.08 3.12c0 2 1.2 2.72 4.8 3.36 3.76.64 5.92 1.6 5.92 5.04 0 2.96-2.16 5.12-6.16 5.12-4.08 0-6.48-2.16-6.72-5.52z"/></svg>